
<svg xmlns="http://www.w3.org/2000/svg" xmlns:xlink="http://www.w3.org/1999/xlink" 
    version="1.1" preserveAspectRatio="xMinYMin meet" viewBox="0 0 128 128">



<!-- define color {myColor, ohanaColor, fluffyColor, pippelColor1-4} -->

<defs>
    <style>
        :root {
            --myColor:#444444;
            --ohanaColor:#AFE2F2;
            --fluffyColor:#B3BFC7;
            --pc1:#EEB7EE;
            --pc2:#D580E2;
            --pc3:#FAB2D4;
            --pc4:#C48DED;

        }
    </style>
</defs>




<!-- back white window -->

<rect width="128" height="128" fill="#ffffff" rx="12" ry="12"/>



<!-- astar -->

<g fill="var(--myColor)" fill-opacity="0.125" transform="translate(64 64)">

    <!-- path -->
    <path id="astar" d="m64 -4a64 64 0 00-111.8-38l-.2.4a63.8 63.8 0 00-15 51.2v.2a78.6 78.6 0 001.2 6.1 64 64 0 00126-20zm-13.9 1a48 48 0 01-.8 12.6 50.7 50.7 0 00-21.9-24.1c1.8-19.2-4.8-27.3-12.2-28.7a10.7 10.7 0 10-1.8 21.2v2a57.3 57.3 0 00-25.5-.6c.7-6.5 3.2-13.8 7.9-19a21.9 21.9 0 0123.2-6.4 50.1 50.1 0 0131 43h.1zm-44.6 9.7a45 45 0 01-5.5 6.5c-3-3.3-5.7-7-7.7-10.9l-.3-.6a45.6 45.6 0 01-2.9-8c4.6-1 9-1.5 13.3-1.2h.7c2.7.2 5.4.7 8.9 1.5a47.6 47.6 0 01-6 12.7zm-21.9-53.6a50.7 50.7 0 00-9.9 31c-17.5 8.2-21.2 17.9-18.7 25l.3.5a10.7 10.7 0 1019-9.6l1.8-1a57.2 57.2 0 0012.1 22.3c-6 2.6-13.5 4.1-20.5 2.7a22 22 0 01-17-16.7 49.6 49.6 0 0133-54.3zm20 97.1a49.8 49.8 0 01-36-12 50.6 50.6 0 0031.8-6.9c15.8 11 26.1 9.4 31 3.7a10.7 10.7 0 10-16.7-13.4l-.8 1.3-1.8-1a57.1 57.1 0 0013.3-21.8 35.3 35.3 0 0112.6 16.4 22 22 0 01-6 23.1 49.7 49.7 0 01-27.3 10.7z"/>
    
    <!-- anim -->
    <animateTransform attributeName="transform" type="rotate" repeatCount="indefinite" from="360 0 0" to="0 0 0" dur="60s" additive="sum"/>
</g>



<!-- draw window border -->

<defs>
    <linearGradient id="grad1" x1="-1000%" y1="-1000%" x2="100%" y2="100%">
        <stop offset="0%" stop-color="#ffffff"/>
        <stop offset="100%" stop-color="var(--myColor)"/>
    </linearGradient>
</defs>

<rect width="128" height="128" fill="url(#grad1)" rx="12" ry="12" fill-opacity="0.6"/>


<!-- draw transparent white color window -->

<rect x="10" y="10" width="108" height="108" fill="#ffffff" rx="10" ry="10" fill-opacity="0.3"/>



<!-- draw flowing msg {userMsg} -->

<!-- path -->
<path d="M 111 8 Q 120 8 120 17 L 120 111 Q 120 120 111 120 L 17 120 Q 8 120 8 111 L 8 17 Q 8 8 17 8 Z" fill="none" id="tpath"/>

<!-- msg -->
<text text-rendering="optimizeSpeed" fill="#ffffff" font-family="arial" font-size="9px" font-weight="bold" fill-opacity="0.8">
<textPath startOffset="0%" xlink:href="#tpath">
Loading on-chain data now...
<animate additive="sum" attributeName="startOffset" from="100%" to="0%" begin="0s" dur="20s" repeatCount="indefinite"/>
</textPath>
<textPath startOffset="-100%" xlink:href="#tpath">
Loading on-chain data now...
<animate additive="sum" attributeName="startOffset" from="100%" to="0%" begin="0s" dur="20s" repeatCount="indefinite"/>
</textPath>
</text>



<!-- draw ID and date {id, date, blockNumber} -->

<g fill="var(--myColor)" font-family="arial" font-weight="bold" fill-opacity="0.6" stroke-opacity="0.6">

    <!-- text -->
    <text x="14" y="23" font-size="14px" text-anchor="start">#0</text>
    <text x="114" y="21" font-size="10px" text-anchor="end">2021.3.8</text>
    <text x="108" y="117" font-size="2.5px" text-anchor="end">Memento of Murasaki-san</text>

    <text x="64" y="70" font-size="18px" text-anchor="middle">Loading...</text>

    <!-- logo -->
    <defs>
        <style>
            #stroke{stroke-dasharray:500 500;stroke-dashoffset:500;animation:_logo 3s linear forwards;}
            @keyframes _logo{0%{stroke-dashoffset:500;}20%{stroke-dashoffset:500;}100%{stroke-dashoffset:0;}}
        </style>
    </defs>
    <g fill="none" transform="translate(74 113.5) scale(0.03)" stroke="var(--myColor)" id="stroke">
        <path d="M48.8 71v35.7c0 4.6-3.7 8.3-8.3 8.3h-81.2a8.3 8.3 0 0 1-8.3-8.3v-60" stroke-width="10.56"/>
        <path d="M-31.4 50.4c0-1.5 1.2-2.7 2.7-2.7H9.7c1.5 0 2.7 1.2 2.7 2.7v38.3c0 1.5-1.2 2.7-2.7 2.7h-38.4a2.7 2.7 0 0 1-2.7-2.7Z" 
            stroke-width="6.6"/>
        <path d="m0 0-70.8 41M-.1 0l70.8 41" stroke-width="17.16" stroke-linecap="round"/>
    </g>
</g>



<!-- underbar animation -->
<g>
    <!-- astar dot -->
    <use xlink:href="#astar" transform="translate(108.5,116.8) scale(0.005,0.005)" fill="var(--myColor)"/>
    <animate attributeName="fill-opacity" values="0.6;0.6;0;0;0.6" keyTimes="0;0.5;0.5;1;1" dur="3s" repeatCount="indefinite"/>
</g>


</svg>