<svg xmlns="http://www.w3.org/2000/svg" style="--bc1:#4E95D9;--kc1:#34b500;--kc2:#d266c9;--pc1:#EEB7EE;--pc2:#D580E2;--pc3:#FAB2D4;--pc4:#C48DED" viewBox="0 0 500 500" xmlns:xlink="http://www.w3.org/1999/xlink"><defs><filter id="a"><feGaussianBlur stdDeviation="1"/></filter><filter id="b" width="500" height="500" x="0" y="0" filterUnits="userSpaceOnUse"><feTurbulence baseFrequency=".8" result="img" seed="1" type="fractalNoise"/><feDisplacementMap in="SourceGraphic" in2="img" xChannelSelector="R" yChannelSelector="B"/></filter></defs><path fill="var(--bc1)" fill-opacity=".1" d="M0 0h500v500H0z"/><circle cx="250" cy="250" r="250" fill="#FFF" fill-opacity=".5"><animate attributeName="r" dur="5s" repeatCount="indefinite" values="250;260;250"/></circle><g filter="url(#a)"><path fill="#E1CBBD" d="M0 463h323v37H0z"/><path fill="#F7E1C3" d="M276 463h224v37H276zM0 430h163v40H0z"/><path fill="#F5DBCD" d="M109 430h391v40H109z"/></g><path fill="none" d="M0 430h500v70H0z"/><g transform="translate(-40 -40)scale(1.15)"><path fill="#48241E" d="M123 391c0-6.5 57-11.5 127-11.5s127 5 127 11.5v45c0 6.5-55 11.5-127 11.5s-127-5-127-11.5z"/><circle cx="250" cy="250" r="180" fill="var(--bc1)" fill-opacity=".1"/></g><g fill="none" fill-opacity=".3" stroke="#fff" stroke-opacity=".3" stroke-width="3" filter="url(#b)"><g><g><path d="m136 117 36 51h-72z"/><animateTransform additive="sum" attributeName="transform" dur="6s" from="0 136 151" repeatCount="indefinite" to="360 136 151" type="rotate"/></g><animateTransform additive="sum" attributeName="transform" dur="8.1s" from="-20 -20" repeatCount="indefinite" to="-20 200" type="translate"/></g><g><g><path d="M200 56h54v54h-54z"/><animateTransform additive="sum" attributeName="transform" dur="7s" from="0 227 83" repeatCount="indefinite" to="360 227 83" type="rotate"/></g><animateTransform additive="sum" attributeName="transform" dur="5.2s" from="-20 0" repeatCount="indefinite" to="-20 200" type="translate"/></g><g><g><path d="m300 55-30 89 75-60h-90l75 60z"/><animateTransform additive="sum" attributeName="transform" dur="10s" from="0 300 102" repeatCount="indefinite" to="360 300 102" type="rotate"/></g><animateTransform additive="sum" attributeName="transform" dur="7.3s" from="0 0" repeatCount="indefinite" to="0 230" type="translate"/></g><g><g><path d="m385 136 36 51h-72z"/><animateTransform additive="sum" attributeName="transform" dur="6s" from="0 385 170" repeatCount="indefinite" to="360 385 170" type="rotate"/></g><animateTransform additive="sum" attributeName="transform" dur="6.4s" from="0 -25" repeatCount="indefinite" to="0 150" type="translate"/></g></g><path fill="#f7e1c3" d="M443 322.3a207 207 0 0 1-264.5 123 207 207 0 0 1-123-123z"/><g filter="url(#b)"><ellipse cx="250" cy="315" fill="#fff6f5" rx="165" ry="23" transform="translate(-40 -40)scale(1.15)"/><ellipse cx="120" cy="120" fill="#fff" fill-opacity=".4" rx="60" ry="12" transform="rotate(-45 120 120)"><animateTransform additive="sum" attributeName="transform" dur="5s" repeatCount="indefinite" type="translate" values="5 0; -5 0; 5 0"/></ellipse><linearGradient id="c" x1="0" x2="1" y1="0" y2="1"><stop offset="0" stop-color="#FFF"/><stop offset=".7" stop-color="var(--kc1)"/><stop offset="1" stop-color="var(--kc1)"/></linearGradient><linearGradient id="d" x1="0" x2="1" y1="0" y2="1"><stop offset="0" stop-color="#FFF"/><stop offset=".7" stop-color="var(--kc2)"/><stop offset="1" stop-color="var(--kc2)"/></linearGradient><g filter="url(#a)"><circle cx="225" cy="224" r="82" fill="url(#c)" fill-opacity=".8"/><circle cx="188" cy="187" r="20" fill="#FFF" fill-opacity=".2"/></g><g filter="url(#a)"><circle cx="141" cy="254" r="59" fill="url(#d)"/><circle cx="111" cy="224" r="10" fill="#FFF" fill-opacity=".2"/></g><g fill="#a26a42" transform="translate(0 -7)"><path d="M342 93h5v68h-5zm18 0h5v68h-5z"/><path d="M342 93h23v5h-23zm0 63h23v5h-23zm0-63 11-9 12 9z"/><circle cx="353.5" cy="84" r="4"/></g><circle cx="353" cy="118" fill="#f5e247" fill-opacity=".7" filter="url(#a)"><animate attributeName="r" dur="5s" repeatCount="indefinite" values="14;22;14"/></circle><circle cx="180" cy="55" r="7" fill="#A6CAEC"><animateTransform attributeName="transform" dur="8s" keyTimes="0;0.8;1;1" repeatCount="indefinite" type="translate" values="0 0;0 300;0 300;0 0"/><animate attributeName="opacity" dur="8s" keyTimes="0;0.8;1;1" repeatCount="indefinite" values="0.7;0;0;0"/></circle><circle cx="310" cy="55" r="6" fill="#c0d9f1"><animateTransform attributeName="transform" begin="4s" dur="8s" keyTimes="0;0.8;1;1" repeatCount="indefinite" type="translate" values="0 0;0 300;0 300;0 0"/><animate attributeName="opacity" begin="4s" dur="8s" keyTimes="0;0.8;1;1" repeatCount="indefinite" values="0.7;0;0;0"/></circle><g fill="none" stroke="#FFF" stroke-linecap="round" stroke-opacity=".4"><path stroke-width="1.9" d="m322 371.3 3.3 4.7 3.8 1 1.8-.5 1.4-1.2 1.6-.7 1.8-.7 1.4.3.8.9.4 2.2v3.7l.4 3.7 3.5 14.8v2.9l-1 3-2 2.3-2.7 2-2-.1-2.3-2-2.2-1.5-1 .5-1.9 2.1-1.6.7-1.6-.2-1.3-1-1.4-2-1-.9-1.4-.2-1.2.8-2.2 1.8h-1l-.9-.6-.7-1.4-.5-1.5-.9-.4-1 .3-.9.8-.8.4-.4-.4-.8-2.3v-3l.4-3.7 1-4 1.5-4.6 1.7-3.9 2.6-3.9 2.4-3.7 1.4-2.7 1.6-1.7.8-.6h.7z"/><path d="m316.3 383 1.3 1-1.1.7m13 .8-1.5.5 1.3 1m-5.2 0 .7.1.7.6.2.3-.3 1.7-.8.3-.8.4-1 .3-3.4-.6-.3-.6-.7-.6-.3-.8-.2-.5.2-1.2.6-.1.5-.2z"/></g><g fill="none" stroke="#FFF" stroke-linecap="round" stroke-opacity=".4"><path stroke-width="1.8" d="m172.1 376.2 2.4 1.1 2 1 .7.1.8-.4 2.8-4.5 1.1-1 1.5-.6 1.2.3 4.4 4.6 2 3.4 1.6 3.3.8.7 1 .8 2 .3 1.2.2.4.6.1.9-.2 1-1.7 4.3-.6 1.6-1.1 4-1 3.1-1.8 3-.9 1-1 .7h-1.6l-3.2-1-1.2-.2-.9.1-1 .4-4.2 2.8-.9.4-1 .2h-1.4l-1.4-.4-2-1.3-4.8-4.3-.7-.3-1-.3-1.5-.1-1.4-.4-1-.8-.4-.8v-.9l.9-1.5 1-2.2.7-3.2.2-5.2.4-5.6.6-4 .7-2 .6-.9.8-.3 1-.2h.8z"/><path stroke-width=".9" d="m180.8 389 .8-.7h.4l.3.1.2 1.3-.5.8-1.7.3-.8-.3-.5-.4v-.6l.3-.5 1-.2z"/><g fill="#fff" fill-opacity=".4" stroke="none" transform="rotate(-10 548.5 611.5)scale(2.2)"><circle cx="98.3" cy="148.3" r=".6"/><circle cx="105.5" cy="147.9" r=".6"/><animateTransform additive="sum" attributeName="transform" dur="30s" keyTimes="0;0.5;0.5;0.505;0.505;1" repeatCount="indefinite" type="scale" values="1,1;1,1;0,0;0,0;1,1;1,1"/></g></g><g fill="none" stroke="#fff" stroke-opacity=".4" transform="translate(250 397)"><circle cx="2" cy="2" r="11.5" stroke-width="1.6"/><g fill="#fff" fill-opacity=".5" stroke="none"><circle cx="-3" cy="-1" r="1.2"/><circle cx="7" cy="-1" r="1.2"/><circle cx="-6" cy="4" r="2"/><circle cx="10" cy="4" r="2"/></g></g></g><circle cx="250" cy="250" r="180" fill="none" stroke="var(--bc1)" stroke-opacity=".5" stroke-width="7.5" transform="translate(-40 -40)scale(1.15)"/><g filter="url(#b)"><g transform="matrix(.5 0 0 .5 400 318)"><g stroke="#fff" stroke-opacity=".2" stroke-width="10"><path id="f" fill="none" stroke-linecap="round" d="M0 0c2.5-16.4 5.6-33.3 5.7-47.8 0-14.5-4.4-32.3-5.4-39.4s-1.5-8.8-1.7-12q-.2-5 .6-9.8"/></g><linearGradient id="e" x1="0%" x2="0%" y1="500%" y2="0%"><stop offset="0%" stop-color="#fff"/><stop offset="100%" stop-color="#73EAA1"/></linearGradient><use stroke="url(#e)" stroke-width="8" href="#f"/><path fill="#73EAA1" stroke="#fff" stroke-opacity=".2" d="M8-45c.1-.1-.2-3.3 2-5.2C12.1-52.1 19.3-61 22.4-61s5.3 7.5 5.8 10.8a11 11 0 0 1-2.9 8.7c-2 2.2-6.6 4.3-9.2 4.7s-5-1-6.4-2.4S8.2-42.8 8-45zM0-20a34 34 0 0 0-14.8-11.9c-2-.5-3.2.6-4 1.7s-.5 3.5-.3 5.2q.2 2.7 1 5.2.8 2.2 1.9 3.9c.7 1.1 1.1 1.9 2.5 2.5s3.7 1.3 5.6 1.1 4.1-1.5 5.4-2.1 2.2-.7 2.6-1.5c.5-.9 1.1-2.1 0-4z"/></g><g fill-opacity=".5" transform="matrix(2 0 0 2 400 261)"><circle r="8" fill="#fff" fill-opacity=".6" filter="url(#a)"/><circle r="1.5" fill="var(--pc1)" fill-opacity=".6"/><g transform="scale(3)"><circle cx="2" r="1" fill="var(--pc1)"/><circle cx="1.7" cy="1" r=".8" fill="var(--pc2)"/><circle cx="1" cy="1.7" r="1" fill="var(--pc3)"/><circle cy="2" r=".8" fill="var(--pc1)"/><circle cx="-1" cy="1.7" r="1" fill="var(--pc2)"/><circle cx="-1.7" cy="1" r=".8" fill="var(--pc1)"/><circle cx="-2" r="1" fill="var(--pc3)"/><circle cx="-1.7" cy="-1" r=".8" fill="var(--pc1)"/><circle cx="-1" cy="-1.7" r="1" fill="var(--pc2)"/><circle cy="-2" r=".8" fill="var(--pc4)"/><circle cx="1" cy="-1.7" r="1" fill="var(--pc1)"/><circle cx="1.7" cy="-1" r=".8" fill="var(--pc3)"/><animateTransform additive="sum" attributeName="transform" dur="90s" from="360 0 0" repeatCount="indefinite" to="0 0 0" type="rotate"/></g><g transform="scale(2)"><circle cx="2" r="1.5" fill="var(--pc1)"/><circle cx="1.7" cy="1" r="1" fill="var(--pc2)"/><circle cx="1" cy="1.7" r="1" fill="var(--pc1)"/><circle cy="2" r="1.5" fill="var(--pc4)"/><circle cx="-1" cy="1.7" r="1" fill="var(--pc1)"/><circle cx="-1.7" cy="1" r="1" fill="var(--pc2)"/><circle cx="-2" r="1.5" fill="var(--pc3)"/><circle cx="-1.7" cy="-1" r="1" fill="var(--pc2)"/><circle cx="-1" cy="-1.7" r="1" fill="var(--pc3)"/><circle cy="-2" r="1.5" fill="var(--pc1)"/><circle cx="1" cy="-1.7" r="1" fill="var(--pc4)"/><circle cx="1.7" cy="-1" r="1" fill="var(--pc3)"/><animateTransform additive="sum" attributeName="transform" dur="60s" from="0 0 0" repeatCount="indefinite" to="360 0 0" type="rotate"/></g></g></g><g transform="translate(-40 -40)scale(1.15)"><circle cx="250" cy="250" r="180" fill="var(--bc1)" fill-opacity=".1"/><path fill="#7A3E34" stroke="#CCC" stroke-width=".5" d="M123 391c0 6.5 57 11.5 127 11.5s127-5 127-11.5v45c0 6.5-55 11.5-127 11.5s-127-5-127-11.5z"/></g><radialGradient id="g"><stop offset="0%" stop-color="#FFF"/><stop offset="100%" stop-color="#FFF" stop-opacity="0"/></radialGradient><g fill="url(#g)" filter="url(#b)"><circle cx="120" cy="160" r="6"><animate attributeName="opacity" dur="3s" repeatCount="indefinite" values="0;1;0"/></circle><circle cx="200" cy="90" r="5"><animate attributeName="opacity" dur="3.5s" repeatCount="indefinite" values="1;0;1"/></circle><circle cx="250" cy="130" r="3"><animate attributeName="opacity" dur="4s" repeatCount="indefinite" values="0;1;0"/></circle><circle cx="290" cy="100" r="3"><animate attributeName="opacity" dur="4.5s" repeatCount="indefinite" values="1;0;1"/></circle><circle cx="390" cy="150" r="5"><animate attributeName="opacity" dur="3.2s" repeatCount="indefinite" values="0;1;0"/></circle></g><path fill="none" d="M0 0h500v500H0z"/></svg>