<svg xmlns="http://www.w3.org/2000/svg" xmlns:xlink="http://www.w3.org/1999/xlink" preserveAspectRatio="xMinYMin meet" viewBox="0 0 500 500"><style>@keyframes moveX{0%,49%,to{transform:translateY(0)}50%,99%{transform:translateY(-2px)}}:root{--bc1:#4E95D9;--kc1:#34b500;--kc2:#d266c9;--pc1:#DFF1F4;--pc2:#F4EF86;--pc3:#E1D6E9;--pc4:#F19EC2;--pc1:#FFFA70;--pc2:#F8BF7F;--pc3:#F4A33C;--pc4:#EC6D4E;--pc1:#72BCE9;--pc2:#C6BFDF;--pc3:#12A3FC;--pc4:#FFFA70;--pc1:#F6CFD6;--pc2:#F19EC2;--pc3:#ED7BAC;--pc4:#9FCBF2;--pc1:#EEB7EE;--pc2:#D580E2;--pc3:#FAB2D4;--pc4:#C48DED;--fc1:#FBFFF0;--fc2:#B3BFC7;--fc3:#FF686B;--fc4:#DAB3FF;--fc5:#A9E8FF}.f1 circle,.f1 use{animation:moveX 3.3s linear infinite}.f2 circle,.f2 use{animation:moveX 3s linear infinite}.f3 circle,.f3 use{animation:moveX 3.9s linear infinite}.f4 circle,.f4 use{animation:moveX 3.6s linear infinite}.f5 circle,.f5 use{animation:moveX 3s linear infinite}</style><defs><filter id="b.5"><feGaussianBlur stdDeviation=".5"/></filter><filter id="b1"><feGaussianBlur stdDeviation="1"/></filter><filter id="b2"><feGaussianBlur stdDeviation="2"/></filter><filter id="b3"><feGaussianBlur stdDeviation="2"/></filter><filter id="b5"><feGaussianBlur stdDeviation="5"/></filter></defs><path fill="var(--bc1)" fill-opacity=".15" d="M0 0h500v500H0z"/><circle cx="250" cy="250" r="250" fill="#FFF" fill-opacity=".5"><animate attributeName="r" values="250;260;250" dur="5s" repeatCount="indefinite"/></circle><g filter="url(#b1)"><path fill="#E1CBBD" d="M0 463h323v37H0z"/><path fill="#F7E1C3" d="M276 463h224v37H276zM0 430h163v40H0z"/><path fill="#F5DBCD" d="M109 430h391v40H109z"/><path stroke="#A6A6A6" stroke-width="2" d="m1 429 499 1"/></g><path fill="#F15A22" fill-opacity="0" d="M0 430h500v70H0z"/><ellipse cx="250" cy="449" rx="175" ry="14" fill="var(--bc1)" fill-opacity=".3"/><linearGradient id="h" x1="0" y1="0" x2="0" y2="1"><stop offset="0" stop-color="#FFF"/><stop offset="1" stop-color="var(--bc1)"/></linearGradient><path d="m38 260 92-183h242l92 183-92 184H130L38 260Z" style="fill-opacity:.25" fill="url(#h)"/><linearGradient id="b" x1="0" y1="0" x2="1" y2="1"><stop offset="0" stop-color="#FFF"/><stop offset=".7" stop-color="var(--kc1)"/><stop offset="1" stop-color="var(--kc1)"/></linearGradient><linearGradient id="c" x1="0" y1="0" x2="1" y2="1"><stop offset="0" stop-color="#FFF"/><stop offset=".7" stop-color="var(--kc2)"/><stop offset="1" stop-color="var(--kc2)"/></linearGradient><g filter="url(#b2)"><circle cx="230" cy="274" r="82" fill="url(#b)"/><circle cx="193" cy="237" r="20" fill="#FFF" fill-opacity=".2"/></g><g filter="url(#b1)"><circle cx="146" cy="294" r="59" fill="url(#c)"/><circle cx="116" cy="264" r="10" fill="#FFF" fill-opacity=".2"/></g><linearGradient id="d" x1="0" y1="0" x2="0" y2="1"><stop offset="0" stop-color="#FFF"/><stop offset=".3" stop-color="#F2EBD3"/><stop offset="1" stop-color="#d9d3bd"/></linearGradient><pattern id="ct" width="20" height="20" patternUnits="userSpaceOnUse" fill="#717375"><circle cx="5" cy="5" r="2" fill-opacity=".2"/><circle cx="15" cy="15" r="2" fill-opacity=".2"/><circle cx="10" cy="10" r="1.5" fill-opacity=".1"/></pattern><path fill="url(#d)" stroke="rgba(0,0,0,0.05)" stroke-width="3" d="M74 339h354l-54 106H128z"/><path fill="url(#ct)" fill-opacity=".7" d="M74 339h354l-54 106H128z"/><path fill="0" fill-opacity="0" d="M74 339h354l-54 106H128z"/><g fill="#8B4513" filter="url(#b.5)"><path d="M342 93h5v68h-5V93Zm18 0h5v68h-5V93Z"/><path d="M342 93h23v5h-23v-5Zm0 63h23v5h-23v-5Zm0-63 11-9 12 9h-23Z"/><circle cx="353.5" cy="84" r="4"/></g><circle cx="353" cy="125" fill="#f5e247" fill-opacity=".7" filter="url(#b3)"><animate attributeName="r" values="14;22;14" dur="5s" repeatCount="indefinite"/></circle><circle cx="180" cy="78" r="7" fill="#A6CAEC"><animateTransform attributeName="transform" type="translate" values="0 0;0 300;0 300;0 0" keyTimes="0;0.8;1;1" dur="8s" repeatCount="indefinite"/><animate attributeName="opacity" keyTimes="0;0.8;1;1" values="0.7;0;0;0" dur="8s" repeatCount="indefinite"/></circle><circle cx="310" cy="78" r="6" fill="#c0d9f1"><animateTransform attributeName="transform" type="translate" values="0 0;0 300;0 300;0 0" keyTimes="0;0.8;1;1" dur="8s" repeatCount="indefinite" begin="4s"/><animate attributeName="opacity" keyTimes="0;0.8;1;1" values="0.7;0;0;0" dur="8s" repeatCount="indefinite" begin="4s"/></circle><linearGradient id="a" x1="0" y1="0" x2="1" y2="1"><stop offset="0" stop-color="#ab7152"/><stop offset="1" stop-color="#933d10"/></linearGradient><path fill="#933D10" fill-rule="evenodd" d="M240 45a11 11 0 1 1 22 0 11 11 0 0 1-22 0Z"/><rect x="145" y="44" width="210" height="34" rx="7" ry="7" fill="url(#a)"/><linearGradient id="e" x1="0" y1="0" x2="1" y2="1"><stop offset="0" stop-color="#FFF"/><stop offset=".2" stop-color="var(--bc1)"/><stop offset="1" stop-color="var(--bc1)"/></linearGradient><use xlink:href="#x" style="fill-opacity:0;stroke-opacity:.8" stroke="url(#e)" stroke-width="18" stroke-linejoin="round" filter="url(#b.5)"/><g transform="matrix(.5 0 0 .5 390 340)"><g stroke="#fff" stroke-opacity=".2" stroke-width="10"><path d="M0 0c2.5-16.4 5.6-33.3 5.7-47.8 0-14.5-4.4-32.3-5.4-39.4-1-7.1-1.5-8.8-1.7-12-.2-3.2.2-6.7.6-9.8" id="pippelStem" fill="none" stroke-linecap="round"/></g><linearGradient id="grad2" x1="0%" y1="500%" x2="0%" y2="0%"><stop offset="0%" stop-color="#fff"/><stop offset="100%" stop-color="#73EAA1"/></linearGradient><use xlink:href="#pippelStem" stroke="url(#grad2)" stroke-width="8"/><g fill="#73EAA1" stroke="#fff" stroke-opacity=".2"><path d="M8-45c.1-.1-.2-3.3 2-5.2C12.1-52.1 19.3-61 22.4-61c3 0 5.3 7.5 5.8 10.8.5 3.2-.9 6.5-2.9 8.7-2 2.2-6.6 4.3-9.2 4.7-2.6.4-5-1-6.4-2.4C8.3-40.6 8.2-42.8 8-45zM0-20c-1.1-1.9-4.3-5.2-6.8-7.2s-6-4.2-8-4.7-3.2.6-4 1.7c-.7 1.2-.5 3.5-.3 5.2.1 1.7.5 3.6 1 5.2.5 1.5 1.2 2.8 1.9 3.9s1.1 1.9 2.5 2.5c1.3.6 3.7 1.3 5.6 1.1 1.8-.2 4.1-1.5 5.4-2.1 1.3-.6 2.2-.7 2.6-1.5.5-.9 1.1-2.1 0-4z"/></g></g><g transform="matrix(2 0 0 2 390 283)" fill-opacity=".5"><circle r="8" fill="#fff" fill-opacity=".6" filter="url(#b1)"/><circle r="1.5" fill="var(--pc1)" fill-opacity=".6"/><g transform="scale(3)"><circle cx="2" r="1" fill="var(--pc1)"/><circle cx="1.73" cy="1" r=".8" fill="var(--pc2)"/><circle cx="1" cy="1.73" r="1" fill="var(--pc3)"/><circle cy="2" r=".8" fill="var(--pc1)"/><circle cx="-1" cy="1.73" r="1" fill="var(--pc2)"/><circle cx="-1.73" cy="1" r=".8" fill="var(--pc1)"/><circle cx="-2" r="1" fill="var(--pc3)"/><circle cx="-1.73" cy="-1" r=".8" fill="var(--pc1)"/><circle cx="-1" cy="-1.73" r="1" fill="var(--pc2)"/><circle cy="-2" r=".8" fill="var(--pc4)"/><circle cx="1" cy="-1.73" r="1" fill="var(--pc1)"/><circle cx="1.73" cy="-1" r=".8" fill="var(--pc3)"/><animateTransform attributeName="transform" type="rotate" from="360 0 0" to="0 0 0" dur="90s" repeatCount="indefinite" additive="sum"/></g><g transform="scale(2)"><circle cx="2" r="1.5" fill="var(--pc1)"/><circle cx="1.73" cy="1" r="1" fill="var(--pc2)"/><circle cx="1" cy="1.73" r="1" fill="var(--pc1)"/><circle cy="2" r="1.5" fill="var(--pc4)"/><circle cx="-1" cy="1.73" r="1" fill="var(--pc1)"/><circle cx="-1.73" cy="1" r="1" fill="var(--pc2)"/><circle cx="-2" r="1.5" fill="var(--pc3)"/><circle cx="-1.73" cy="-1" r="1" fill="var(--pc2)"/><circle cx="-1" cy="-1.73" r="1" fill="var(--pc3)"/><circle cy="-2" r="1.5" fill="var(--pc1)"/><circle cx="1" cy="-1.73" r="1" fill="var(--pc4)"/><circle cx="1.73" cy="-1" r="1" fill="var(--pc3)"/><animateTransform attributeName="transform" type="rotate" from="0 0 0" to="360 0 0" dur="60s" repeatCount="indefinite" additive="sum"/></g></g><filter id="fluffyShadow"><feGaussianBlur in="SourceAlpha" stdDeviation=".5"/><feOffset dx="2" dy="2" result="offsetblur"/><feComponentTransfer><feFuncA type="linear" slope=".75"/></feComponentTransfer><feMerge><feMergeNode/><feMergeNode in="SourceGraphic"/></feMerge></filter><defs><g id="f"><circle cx="2" cy="2" r="12" fill="#FFF" fill-opacity=".4" filter="url(#b1)"/><circle cx="2" cy="2" r="11" filter="url(#b.5)"/><g fill-opacity=".5"><circle cx="-3" cy="-1" r="1"/><circle cx="7" cy="-1" r="1"/><animateTransform attributeName="transform" type="scale" values="1,1;1,1;1,0.2;1,0.2;1,1;1,1" keyTimes="0;0.4;0.4;0.42;0.42;1" dur="10s" repeatCount="indefinite" additive="sum"/></g><g fill="#FBAED2" fill-opacity=".5"><circle cx="-6" cy="4" r="2"/><circle cx="10" cy="4" r="2"/></g></g></defs><g style="fill-opacity:.1"><path id="x" d="m38 260 92-183h242l92 183-92 184H130L38 260Z"/><animate attributeName="fill" values="#E60012;#F39800;#2f34d3;#8FC31F;#009944;#009E96;#00A0E9;#0068B7;#1D2088;#920783;#E4007F;#E5004F" keyTimes="0.00;0.09;0.18;0.27;0.36;0.45;0.55;0.64;0.73;0.82;0.91;1.00" dur="120s" repeatCount="indefinite"/></g><radialGradient id="str"><stop offset="0%" stop-color="#FFF"/><stop offset="100%" stop-color="#FFF" stop-opacity="0"/></radialGradient><g fill="url(#str)"><circle cx="150" cy="150" r="6"><animate attributeName="opacity" values="0;1;0" dur="3s" repeatCount="indefinite"/></circle><circle cx="200" cy="120" r="5"><animate attributeName="opacity" values="1;0;1" dur="3.5s" repeatCount="indefinite"/></circle><circle cx="250" cy="160" r="3"><animate attributeName="opacity" values="0;1;0" dur="4s" repeatCount="indefinite"/></circle><circle cx="300" cy="130" r="3"><animate attributeName="opacity" values="1;0;1" dur="4.5s" repeatCount="indefinite"/></circle><circle cx="350" cy="200" r="5"><animate attributeName="opacity" values="0;1;0" dur="3.2s" repeatCount="indefinite"/></circle></g><path fill-opacity="0" d="M0 0h500v500H0z"/></svg>